Coordinates
version=1
nRows=9
nColumns=38
inDegrees=yes

Units are S.I. units (second, meters, Newtons, ...)
Angles are in degrees.

endheader
time	pelvis_tilt	pelvis_list	pelvis_rotation	pelvis_tx	pelvis_ty	pelvis_tz	hip_flexion_r	hip_adduction_r	hip_rotation_r	knee_angle_r	ankle_angle_r	subtalar_angle_r	mtp_angle_r	hip_flexion_l	hip_adduction_l	hip_rotation_l	knee_angle_l	ankle_angle_l	subtalar_angle_l	mtp_angle_l	lumbar_extension	lumbar_bending	lumbar_rotation	arm_flex_r	arm_add_r	arm_rot_r	elbow_flex_r	pro_sup_r	wrist_flex_r	wrist_dev_r	arm_flex_l	arm_add_l	arm_rot_l	elbow_flex_l	pro_sup_l	wrist_flex_l	wrist_dev_l
      2.70000000	      1.86682256	     -2.00042435	     -2.18210484	      0.10072976	      0.89082749	      0.27996620	    -18.61427614	      5.61927225	     -5.32455685	    -16.05626716	     12.55529602	      8.50469412	     17.67513449	     29.18408842	      0.77102681	     -1.23073694	    -14.84095986	      3.28569569	      2.87070642	     14.68057392	     -7.42095407	      3.69597940	      5.11033985	      1.74713095	    -23.55703486	     11.16490166	     37.64575991	     86.51662706	      0.00000000	      0.00000000	     -6.98068449	    -11.75401167	     19.25163432	     11.80093362	     85.94366927	      0.00000000	      0.00000000
      2.71000000	      1.70031925	     -1.67817910	     -2.38634485	      0.11649024	      0.88925328	      0.28036264	    -18.84960899	      5.02968429	     -5.39271084	    -17.12805796	     11.69331646	      8.76858975	     20.71986319	     29.22117296	      1.25497234	     -1.01571164	    -16.13204785	      2.10620232	      2.18885690	     14.52594777	     -6.94115919	      3.26166500	      5.21786001	      1.30929513	    -23.36816756	     10.92434710	     37.52048241	     86.51662706	      0.00000000	      0.00000000	     -7.24835803	    -11.76581619	     19.59739044	     11.49842592	     85.94366927	      0.00000000	      0.00000000
      2.72000000	      1.50865160	     -1.28282535	     -2.50208038	      0.13243582	      0.88771891	      0.28063242	    -18.97847604	      4.38997722	     -5.47630107	    -18.31143710	     10.59525211	      8.87371481	     23.99657893	     29.26876779	      1.86250456	     -0.66780281	    -17.42557629	      0.58751377	      1.25895882	     14.26026018	     -6.39606112	      2.73876791	      5.19774796	      0.83324872	    -23.11660861	     10.64848914	     37.33199081	     86.51662706	      0.00000000	      0.00000000	     -7.53407990	    -11.80999727	     19.90043154	     11.22316251	     85.94366927	      0.00000000	      0.00000000
      2.73000000	      1.30992812	     -0.80746755	     -2.51831322	      0.14846070	      0.88652173	      0.28071886	    -18.97519135	      3.70148109	     -5.58299731	    -19.64220923	      9.19095860	      8.80984385	     27.40933412	     29.35686802	      2.57529358	     -0.21328564	    -18.70236063	     -1.15182168	      0.16388268	     13.90699609	     -5.81223306	      2.12646024	      5.04580841	      0.33600692	    -22.80153668	     10.33545374	     37.07450649	     86.51662706	      0.00000000	      0.00000000	     -7.81616474	    -11.88235077	     20.15062186	     10.97477891	     85.94366927	      0.00000000	      0.00000000
      2.74000000	      1.11393689	     -0.24657119	     -2.43854117	      0.16440970	      0.88590731	      0.28065259	    -18.81256901	      2.96399325	     -5.71630313	    -21.16050049	      7.40947357	      8.57464899	     30.83957689	     29.48208440	      3.36926757	      0.32131013	    -19.98682133	     -2.94285077	     -1.01450184	     13.49500821	     -5.21953867	      1.42540826	      4.77556982	     -0.17082874	    -22.42542792	      9.98556713	     36.74822181	     86.51662706	      0.00000000	      0.00000000	     -8.07374678	    -11.97989384	     20.33786610	     10.75687260	     85.94366927	      0.00000000	      0.00000000
      2.75000000	      0.92368163	      0.39482589	     -2.28092189	      0.18016268	      0.88593556	      0.28052217	    -18.46772711	      2.17852074	     -5.87188748	    -22.90441135	      5.19651474	      8.16940865	     34.15304768	     29.61218402	      4.22128060	      0.90816519	    -21.30999207	     -4.59790794	     -2.19848810	     13.05368954	     -4.64601220	      0.64207467	      4.41704990	     -0.68170474	    -21.99523118	      9.60282389	     36.35961890	     86.51662706	      0.00000000	      0.00000000	     -8.29026372	    -12.10116225	     20.45255565	     10.57739109	     85.94366927	      0.00000000	      0.00000000
      2.76000000	      0.74518198	      1.09704339	     -2.07465266	      0.19572725	      0.88647423	      0.28040711	    -17.92571053	      1.34860742	     -6.03355434	    -24.90367594	      2.53389359	      7.59369886	     37.20930754	     29.70658730	      5.11283481	      1.51673091	    -22.67219537	     -5.94562449	     -3.31550871	     12.60867297	     -4.11515999	     -0.20805050	      4.01108542	     -1.19558964	    -21.52280886	      9.19608758	     35.92052754	     86.51662706	      0.00000000	      0.00000000	     -8.45517514	    -12.24544355	     20.48633779	     10.44823003	     85.94366927	      0.00000000	      0.00000000
      2.77000000	      0.58881107	      1.83058629	     -1.85371152	      0.21117488	      0.88731297	      0.28035312	    -17.17778529	      0.48145894	     -6.17073736	    -27.17421065	     -0.54360498	      6.84060804	     39.87309298	     29.72979679	      6.03007322	      2.11303906	    -24.03139868	     -6.85964290	     -4.29938327	     12.17895380	     -3.64546174	     -1.10042887	      3.60059059	     -1.71285677	    -21.02426856	      8.77974818	     35.44606378	     86.51662706	      0.00000000	      0.00000000	     -8.56371224	    -12.41151942	     20.43312047	     10.38400629	     85.94366927	      0.00000000	      0.00000000
      2.78000000	      0.46105671	      2.56673508	     -1.64993345	      0.22648789	      0.88830566	      0.28038368	    -16.21687805	     -0.41039805	     -6.24021825	    -29.71547449	     -3.93869331	      5.89419653	     42.02631451	     29.65196610	      6.95988151	      2.65996242	    -25.31978580	     -7.27537528	     -5.09316602	     11.77567595	     -3.25044728	     -2.00510553	      3.22157647	     -2.23171654	    -20.51825694	      8.37362764	     34.95186418	     86.51662706	      0.00000000	      0.00000000	     -8.61544537	    -12.59664290	     20.29011779	     10.40009525	     85.94366927	      0.00000000	      0.00000000
